<svg xmlns="http://www.w3.org/2000/svg" enable-background="new 0 0 24 24" viewBox="0 0 24 24"><path fill="none" stroke="#303c42" stroke-linecap="round" stroke-linejoin="round" d="M1.5,1.5h1.4c0.7,0,1.3,0.4,1.4,1.1l3.2,10.9l-1.8,2.2c-0.2,0.2-0.2,0.4-0.2,0.7l0,0   c0,0.6,0.5,1.1,1.1,1.1l0,0h13.9"/><path fill="none" stroke="#303c42" stroke-linecap="round" stroke-linejoin="round" d="M7.5,13.5h10c0.6,0,1.1-0.3,1.4-0.9l3.5-7.4c0.1-0.1,0.1-0.3,0.1-0.5V4.6c0-0.6-0.5-1.1-1.1-1.1   H5"/><circle cx="7" cy="21" r="1.5" fill="none" stroke="#303c42" stroke-linecap="round" stroke-linejoin="round"/><circle cx="19" cy="21" r="1.5" fill="none" stroke="#303c42" stroke-linecap="round" stroke-linejoin="round"/></svg>