<svg xmlns="http://www.w3.org/2000/svg" enable-background="new 0 0 98 98" viewBox="0 0 98 98"><path d="M87.4986 38.4281L73.7734 23.4718l20.2037-7.8286-1.9162-5.421-8.9142.6388-3.9944-3.994c-1.0398-1.0398-2.7383-1.0694-3.803-.0057-1.063 1.064-1.046 2.7627 0 3.8087l.6996.6996-1.7668.1266-3-3.0008c-1.0518-1.0499-2.7569-1.0518-3.803-.0057-.9281.929-1.0729 2.4089-.2449 3.5116l-3.7413.2681-5.5824-6.0831c-2.5552-2.7521-5.9937-4.4004-9.6907-4.6418-1.0812-.0601-2.133.3304-2.9131 1.0968-.7716.7725-1.1711 1.8381-1.0963 2.9192.2405 3.7235 1.8868 7.1672 4.6361 9.6968l6.0847 5.5809-.2683 3.7345c-1.0546-.7874-2.5539-.7131-3.5102.2432-1.055 1.055-1.0545 2.7556 0 3.8092l3.0032 3.0037-.1262 1.7562-.6977-.6975c-1.0158-1.0177-2.7947-1.0154-3.8087-.0005-.5103.5103-.7905 1.1877-.7896 1.9081.0009.7181.2812 1.3931.7896 1.9006l3.9958 3.9953-.6406 8.9152 5.4266 1.9067 7.8281-20.2003 14.9596 13.7209c-.5035 2.5956-1.9507 6.3796 1.7666 8.8315l1.0035.6618 3.6638-9.4569L97 41.194l-.6731-1.0054C93.4351 35.8756 88.9475 38.4654 87.4986 38.4281zM76.7202 9.2992c-.293-.293-.3001-.7663 0-1.0665.2991-.2991.7726-.2844 1.0613.0052l2.8068 2.8065-1.9809.142L76.7202 9.2992zM68.85 10.9276c-.293-.2911-.2956-.7718 0-1.0665.2906-.2902.765-.2892 1.0613.0057l1.8126 1.8128-1.9809.1419L68.85 10.9276zM90.726 12.2615l.7952 2.2532-19.1558 7.4229-7.1986-7.8442L90.726 12.2615zM52.5237 27.2539c-.2959-.2959-.2976-.7679 0-1.0665.2935-.2935.7716-.2935 1.067 0l.8922.8929-.143 1.9903L52.5237 27.2539zM50.8944 35.1245c-.2917-.2898-.2993-.7657 0-1.066.2831-.2835.782-.2854 1.067 0l1.8848 1.8843-.143 1.9904L50.8944 35.1245zM57.1769 48.861l-2.2589-.7934 1.8365-25.5572 7.8447 7.1951L57.1769 48.861zM86.0274 43.3724l-3.021 7.8001c-1.5462-2.097-.0893-4.1635.2054-7.0271l-33.054-30.3156c-2.3791-2.1898-3.804-5.1705-4.0122-8.3989-.0369-.5264.1572-1.0433.5254-1.4125.356-.3489.8265-.5411 1.3245-.5411l.1051.0028c3.1933.2083 6.1727 1.6378 8.3852 4.0212l30.3256 33.0446c3.0848-.3958 5.0056-1.6807 7.02-.2017L86.0274 43.3724zM10.3328 57.7399l13.0348 15.6186L2.8234 80.2322l1.6492 5.5104 8.9362-.2227 3.8039 4.1776c.9985 1.1 2.703 1.1818 3.8039.1789 1.0998-1 1.1805-2.7043.1789-3.8049l-.6639-.7291 1.7593-.0438 2.8591 3.1402c1.0087 1.107 2.7089 1.1784 3.8049.1789.5321-.4838.8435-1.1465.8767-1.8655.0279-.5884-.1422-1.1515-.4668-1.6298l3.7428-.0933 5.289 6.3374c2.0478 2.4501 6.309 5.0948 9.6225 5.0948 1.1597 0 2.1065-.3261 2.8137-.9694 3.0796-2.8051-.0272-9.7897-2.9566-12.7571l-5.8101-5.8553.4432-3.7262c1.0658.8813 2.5531.7999 3.518-.0798 1.1028-1.0031 1.1733-2.7025.1732-3.7997l-2.8567-3.1376.2091-1.7582.6661.7316c.9991 1.0981 2.7066 1.1775 3.804.178 1.1144-1.0133 1.1631-2.7132.1723-3.7997l-3.802-4.176 1.0555-8.8756-5.3253-2.1666L31.357 66.0871 17.0243 51.643c.5662-2.362 2.3355-6.1825-1.3131-8.8699l-.9723-.7167-4.1097 9.2902L1 54.5651l.622 1.0357C3.719 59.088 6.8034 58.2575 10.3328 57.7399zM19.7622 87.3772c.2782.3045.2596.7843-.0511 1.0655-1.0183.9242-1.979-1.4567-3.7385-2.9866l1.9951-.0497L19.7622 87.3772zM27.7005 86.1185c.2782.3045.2596.7843-.0511 1.0655-.3049.2779-.7797.2639-1.0651-.0502l-1.7293-1.899 1.9954-.0497L27.7005 86.1185zM5.9059 83.7678l-.6873-2.2925 19.4828-6.5186 6.8208 8.1729L5.9059 83.7678zM44.7672 70.5794c.469.513.0387 1.3195-.5879 1.2554-.5025-.0236-.6196-.4267-1.373-1.1789l.2346-1.9725L44.7672 70.5794zM46.7619 62.7935c.2776.3057.2676.7769-.0435 1.0603-.3067.2798-.7858.2589-1.066-.0497l-1.7965-1.9733.2345-1.9717L46.7619 62.7935zM41.1346 48.7749l2.2144.9008-3.0267 25.4465-7.4994-7.5577L41.1346 48.7749zM12.0549 52.9144l3.4006-7.6851c1.4218 2.0446-.2789 4.9374-.4374 6.6526l-.0407.4502C48.6792 86.299 46.6421 84.2376 46.868 84.483c2.2494 2.471 4.4231 7.9686 2.6593 9.5757-.3389.3077-.8464.4639-1.5081.4639-2.3753 0-6.1764-2.0558-8.1343-4.3985-3.3082-3.9632 11.2499 13.4775-28.682-34.3615h-.4535c-1.6961 0-4.7413 1.4346-6.6593-.1865L12.0549 52.9144zM20.638 25.3216l-1.4883-1.2421c-.4241.5084-.836 1.0277-1.2345 1.5574l1.5488 1.1664C19.8437 26.2991 20.2346 25.8054 20.638 25.3216zM13.8121 32.4339l1.7533.8284c.2689-.5704.5529-1.1332.8502-1.688l-1.7098-.9155C14.3933 31.242 14.0961 31.8341 13.8121 32.4339zM18.3677 28.3407l-1.6075-1.0849c-.3702.5486-.728 1.1077-1.0707 1.6748l1.6606 1.0026C17.6756 29.3935 18.0146 28.8628 18.3677 28.3407zM28.2951 7.1904c-.5926.294-1.1777.6002-1.7552.9183l.9354 1.6984c.5529-.3048 1.1133-.5979 1.6814-.8795L28.2951 7.1904zM30.0872 6.3487L30.873 8.121c.3711-.1647.7451-.3247 1.1219-.48l-.7403-1.7922C30.8626 6.0107 30.4735 6.1774 30.0872 6.3487zM24.2336 11.7768c.5245-.3503 1.0584-.6906 1.599-1.0187l-1.0054-1.6577c-.5652.3432-1.1219.6977-1.671 1.0641L24.2336 11.7768z"/><path d="M36.9548 7.9515C21.8414 12.3762 10.3792 24.8707 7.1639 40.152l-1.0232-1.5658L4.518 39.6465l2.8733 4.399 4.4004-2.8809-1.0622-1.6217-1.6729 1.0955c3.0441-14.6253 13.988-26.5939 28.4435-30.8265L36.9548 7.9515zM77.7114 72.1969l1.5072 1.2194c.4166-.515.8208-1.0409 1.2109-1.5772l-1.5678-1.1408C78.4905 71.208 78.1071 71.7074 77.7114 72.1969zM82.6012 68.5094l-1.6757-.9751c-.3172.5458-.6476 1.0816-.9912 1.608l1.6227 1.0603C81.9196 69.6478 82.267 69.0836 82.6012 68.5094zM69.1321 91.0344c.5964-.2854 1.1853-.5837 1.7675-.8932l-.9108-1.7117c-.5576.2973-1.1219.5822-1.6937.8563L69.1321 91.0344zM72.6265 89.1717c.5699-.3351 1.1313-.6821 1.6852-1.0405l-1.0547-1.6274c-.5292.3432-1.0679.676-1.6132.9969L72.6265 89.1717zM75.9495 87.0212c.5396-.3825 1.0698-.7758 1.5915-1.1806l-1.1891-1.5318c-.4989.3867-1.0064.764-1.5233 1.1294L75.9495 87.0212zM66.0979 92.3579c.4147-.1624.8255-.3314 1.2336-.5065l-.765-1.7817c-.3891.1666-.7811.328-1.1768.4838L66.0979 92.3579z"/><path d="M56.6306,91.0368c16.9669-3.0633,30.3767-16.0805,34.0758-32.762l0.9994,1.5294l1.6227-1.0603l-2.8752-4.399
		l-4.3994,2.8809l1.0622,1.6217l1.7284-1.1315C85.3572,73.7065,72.5295,86.196,56.286,89.1291L56.6306,91.0368z"/><rect width="1.939" height="1.939" x="31.538" y="31.259"/><rect width="1.939" height="1.939" x="35.415" y="31.259"/><rect width="1.939" height="1.939" x="27.66" y="31.259"/><rect width="1.939" height="1.939" x="61.163" y="78.322"/><rect width="1.939" height="1.939" x="57.285" y="78.322"/><rect width="1.939" height="1.939" x="53.407" y="78.322"/><rect width="1.939" height="1.939" x="66.159" y="48.007"/><rect width="1.939" height="1.939" x="70.036" y="48.007"/><rect width="1.939" height="1.939" x="73.914" y="48.007"/></svg>