<svg id="Capa_1" enable-background="new 0 0 512 512" height="512" viewBox="0 0 512 512" width="512" xmlns="http://www.w3.org/2000/svg"><g><g><path d="m494.5 63.533h-41.725v-10.017c0-9.649-7.851-17.5-17.5-17.5h-12.071c.281-3.009.145-6.053-.41-9.075-2.628-14.342-14.6-25.355-29.112-26.78-9.294-.913-18.575 2.139-25.455 8.376-6.885 6.242-10.833 15.148-10.833 24.437 0 1.011.048 2.028.143 3.042h-12.072c-9.649 0-17.5 7.851-17.5 17.5v10.017h-41.725c-9.649 0-17.5 7.851-17.5 17.5v42.765c0 4.142 3.357 7.5 7.5 7.5s7.5-3.358 7.5-7.5v-42.765c0-1.378 1.121-2.5 2.5-2.5h41.724v3.685c0 9.649 7.851 17.5 17.5 17.5h89.812c9.649 0 17.5-7.851 17.5-17.5v-3.685h41.724c1.379 0 2.5 1.122 2.5 2.5v82.605c0 4.142 3.357 7.5 7.5 7.5s7.5-3.358 7.5-7.5v-82.605c0-9.649-7.851-17.5-17.5-17.5zm-56.725 18.685c0 1.378-1.121 2.5-2.5 2.5h-89.812c-1.379 0-2.5-1.122-2.5-2.5v-28.702c0-1.378 1.121-2.5 2.5-2.5h13.645c3.978 0 7.75-1.728 10.35-4.741 2.556-2.962 3.695-6.865 3.127-10.705-.127-.859-.191-1.732-.191-2.596 0-5.063 2.153-9.919 5.908-13.323 3.804-3.45 8.749-5.071 13.913-4.562 7.89.775 14.396 6.761 15.825 14.557.367 2.003.403 4.011.108 5.97-.578 3.837.55 7.733 3.094 10.689 2.577 2.994 6.319 4.711 10.269 4.711h13.765c1.379 0 2.5 1.122 2.5 2.5v28.702z"/><path d="m504.5 189.258c-4.143 0-7.5 3.358-7.5 7.5v157.83c0 1.378-1.121 2.5-2.5 2.5h-208.26c-1.379 0-2.5-1.122-2.5-2.5v-66.069c0-4.142-3.357-7.5-7.5-7.5s-7.5 3.358-7.5 7.5v66.069c0 9.649 7.851 17.5 17.5 17.5h110.096v112.411c0 6.893-5.607 12.5-12.5 12.5h-29.707v-96.84c0-4.142-3.357-7.5-7.5-7.5s-7.5 3.358-7.5 7.5v96.84h-31.965v-96.84c0-4.142-3.357-7.5-7.5-7.5s-7.5 3.358-7.5 7.5v96.84h-176.184v-274.416h152.76v30.172c0 4.142 3.357 7.5 7.5 7.5s7.5-3.358 7.5-7.5v-75.337c0-26.191-21.309-47.5-47.5-47.5h-61.66c-26.191 0-47.5 21.309-47.5 47.5v30.165h-99.58c-15.164 0-27.5 12.336-27.5 27.5v112.054c0 4.142 3.358 7.5 7.5 7.5s7.5-3.358 7.5-7.5v-112.054c0-6.893 5.607-12.5 12.5-12.5h26.515v274.415h-26.515c-6.893 0-12.5-5.607-12.5-12.5v-100.54c0-4.142-3.358-7.5-7.5-7.5s-7.5 3.358-7.5 7.5v100.54c0 15.164 12.336 27.5 27.5 27.5h356.336c15.163 0 27.5-12.336 27.5-27.5v-112.411h83.164c9.649 0 17.5-7.851 17.5-17.5v-157.83c0-4.141-3.357-7.499-7.5-7.499zm-435.485 113.54h31.965v36.84h-31.965zm166.08-95.215h-59.37v-26.52c0-1.378 1.122-2.5 2.5-2.5h54.37c1.378 0 2.5 1.122 2.5 2.5zm-93.015-30.165c0-17.92 14.58-32.5 32.5-32.5h61.66c17.92 0 32.5 14.58 32.5 32.5v30.165h-18.645v-26.52c0-9.649-7.851-17.5-17.5-17.5h-54.37c-9.649 0-17.5 7.851-17.5 17.5v26.52h-18.645zm-41.1 45.165v65.214h-31.965v-65.214zm-31.965 274.415v-142.36h31.965v142.36z"/><path d="m357.054 136.81c-2.929-2.929-7.677-2.929-10.607 0l-14.256 14.256-4.476-4.476c-2.93-2.929-7.678-2.929-10.607 0s-2.929 7.678 0 10.606l9.779 9.779c1.465 1.465 3.384 2.197 5.304 2.197 1.919 0 3.839-.732 5.304-2.197l19.56-19.559c2.927-2.928 2.927-7.677-.001-10.606z"/><path d="m386.507 159.393h71.822c4.143 0 7.5-3.358 7.5-7.5s-3.357-7.5-7.5-7.5h-71.822c-4.143 0-7.5 3.358-7.5 7.5s3.357 7.5 7.5 7.5z"/><path d="m346.446 182.352-14.256 14.256-4.476-4.477c-2.93-2.929-7.679-2.929-10.606 0-2.93 2.929-2.93 7.677-.001 10.606l9.779 9.78c1.407 1.407 3.314 2.197 5.304 2.197s3.896-.79 5.304-2.197l19.56-19.559c2.929-2.929 2.929-7.678 0-10.606s-7.677-2.93-10.608 0z"/><path d="m386.507 204.934h71.822c4.143 0 7.5-3.358 7.5-7.5s-3.357-7.5-7.5-7.5h-71.822c-4.143 0-7.5 3.358-7.5 7.5s3.357 7.5 7.5 7.5z"/><path d="m317.107 248.28 9.779 9.779c1.465 1.465 3.384 2.197 5.304 2.197 1.919 0 3.839-.732 5.304-2.197l19.56-19.559c2.929-2.929 2.929-7.677 0-10.606s-7.677-2.93-10.607 0l-14.256 14.256-4.476-4.476c-2.93-2.929-7.678-2.929-10.607 0-2.929 2.928-2.929 7.677-.001 10.606z"/><path d="m386.507 250.476h71.822c4.143 0 7.5-3.358 7.5-7.5s-3.357-7.5-7.5-7.5h-71.822c-4.143 0-7.5 3.358-7.5 7.5s3.357 7.5 7.5 7.5z"/><path d="m346.446 273.435-14.256 14.256-4.476-4.477c-2.93-2.929-7.679-2.93-10.606 0-2.93 2.929-2.93 7.677-.001 10.606l9.779 9.78c1.407 1.407 3.314 2.197 5.304 2.197s3.896-.79 5.304-2.197l19.56-19.559c2.929-2.929 2.929-7.677 0-10.606s-7.677-2.929-10.608 0z"/><path d="m386.507 296.018h71.822c4.143 0 7.5-3.358 7.5-7.5s-3.357-7.5-7.5-7.5h-71.822c-4.143 0-7.5 3.358-7.5 7.5s3.357 7.5 7.5 7.5z"/></g></g></svg>